<svg xmlns="http://www.w3.org/2000/svg" viewBox="0 0 4512.578 2872.51">
  <defs>
    <style>
      .cls-1 {
        fill: #def592;
      }

      .cls-2 {
        fill: #7d6868;
        opacity: 0.5;
      }

      .cls-3 {
        fill: #c9d0d4;
      }

      .cls-4 {
        fill: #7b4016;
      }

      .cls-5 {
        fill: #92592d;
      }

      .cls-6 {
        fill: #ab6f40;
      }

      .cls-7 {
        fill: #a16b40;
      }

      .cls-8 {
        fill: #7d331b;
      }

      .cls-9 {
        fill: #92470d;
      }

      .cls-10 {
        fill: #a54e0b;
      }

      .cls-11 {
        fill: #8e4813;
      }
    </style>
  </defs>
  <g id="Group_9" data-name="Group 9" transform="translate(-56 -221.515)">
    <ellipse id="Ellipse_27" data-name="Ellipse 27" class="cls-1" cx="1860.948" cy="405.6" rx="1860.948" ry="405.6" transform="translate(56 1914.891)"/>
    <ellipse id="Ellipse_28" data-name="Ellipse 28" class="cls-2" cx="759.6" cy="214.475" rx="759.6" ry="214.475" transform="translate(234.729 2047.327)"/>
    <path id="Path_51" data-name="Path 51" class="cls-3" d="M3756.081,409.8s-132.889-106.645,88.973-118.337,624.557-41.058,882.459-4.562,322.221,116.217,325.631,161.318S4966.1,504.6,4937.089,543.437s0,60.134,0,60.134,125.441,31.322,116.055,78.511,20.479,82.686-153.6,110.247-542.714,0-542.714,0H4145.2s-92.162-31.738-92.162,0S4205.786,877.1,4145.2,919.281s-334.509,41.761-334.509,41.761-122.88-8.353-146.773-21.715-15.355-69.739-116.049-36.749-281.35,95.792-286.72,168.713,8.507,108.786-40.96,152.642-62.154,12.331-156.912,22.778-222.115,0-222.115,0-296.806-65.173-341.18-98.581-147.469-60.863-157.015-170.383,140.2-91.914,88.749-133.634-233.13,7.265-294.569-33.241,48.808-128.79,48.808-128.79,51.055-50.368,199.664-107.91,350.563-30.735,350.563-30.735,431.1-66.984,484.007-75.669,51.708-18,177.153-19.545,175.364,59.017,267.483,69.058,78.171-2.023,100.991-28.892S3765.524,419.906,3756.081,409.8Z" transform="translate(-485.067 1842.672)"/>
    <ellipse id="Ellipse_29" data-name="Ellipse 29" class="cls-2" cx="759.6" cy="178.729" rx="759.6" ry="178.729" transform="translate(1753.928 2047.327)"/>
    <g id="Group_7" data-name="Group 7" transform="translate(2054.7 1204.271)">
      <path id="Path_47" data-name="Path 47" class="cls-4" d="M0,3.164,35.842,0H351.553l65.88,3.164,41.641,4.742,32.149,7.379s-2.633,14.231-2.633,16.339S406.365,65.356,379.486,68.519s-203.449,10.014-218.2,10.014-80.642,1.054-96.457-3.69S13.7,69.046,10.014,54.815,0,3.164,0,3.164Z" transform="translate(1368.136 293.576) rotate(90)"/>
      <path id="Path_45" data-name="Path 45" class="cls-5" d="M5.8,72.21,0,31.1,8.434,11.6,19.5,0,67.991,13.7s55.868,6.852,60.085,6.852,60.352,2.787,60.352,2.787l66.213,1.439H438.027l41.164-2.567,16.842-3.743,14.659-6.237,17.776,9.98,5.613,14.346v20.9l-3.74,18.4-4.054,12.787L441.765,95.5s-95.693,20.66-101.176,20.66H223.424c-18.5,0-96.614.685-101.408,0S19.5,88.643,19.5,88.643Z" transform="translate(1364.972 274.059) rotate(90)"/>
      <path id="Path_43" data-name="Path 43" class="cls-6" d="M146.458,1059.372c16.893,44.914,15.123,45.678,33.477,82.383s17.593,34.516,41.865,62.352,55.225,48.99,55.225,48.99,30.282,24.05,67.7,37.411,240.5,20.487,293.941,9.8,93.529-31.176,93.529-31.176,33.849-16.479,59.679-37.411,43.648-46.318,43.648-46.318a369.1,369.1,0,0,0,42.755-57.007c19.148-32.028,33.847-71.1,33.847-71.1l43.644-123.076s60.573-156.77,60.573-159.442,10.881-32.554,20.458-79.094,23.856-154.056,25.863-199.706,2.225-146.526-5.345-188.836-24.942-70.368-24.942-70.368-12.026-26.5-35.629-56.116-58.79-62.352-58.79-62.352S910.56,93.8,885.4,74.653s-25.314-19.561-46.465-34.258-38.159-24.53-38.159-24.53l-63.24,7.126-97.981,4.453H522.866S421.49,24.781,360.993,17.92,280.88,0,280.88,0,218.023,49.469,178.159,76.845s-47.716,28.077-74,60.3-46.768,63.7-46.768,63.7-25.733,47.177-36.137,79.507-13.875,34.576-18.5,89.048-2.57,62.891,0,128.84S19.882,637.324,19.882,637.324s19.354,97.638,42.483,178.833A1484.283,1484.283,0,0,0,112.382,962.1S129.572,1014.459,146.458,1059.372Z" transform="translate(1305.486 0) rotate(90)"/>
      <path id="Path_50" data-name="Path 50" class="cls-7" d="M2476.956,524.758s-57.416,56.757-76.115,137.156,0,241.2,0,241.2l18.6,114.155s-96.533-55.457-125.288-154.045-39.024-209.5-24.648-279.335,24.648-156.1-14.375-217.716S2187.35,275.8,2136,273.745s-149.94,0-149.94,0l114.9-16.561s169,12.945,247.382,98.522S2476.956,524.758,2476.956,524.758Z" transform="translate(-1189.517 -250.4)"/>
    </g>
    <g id="Group_6" data-name="Group 6" transform="translate(648.608 221.515)">
      <path id="Path_47-2" data-name="Path 47" class="cls-8" d="M3001.773-222.594l55.61-4.909h489.846l102.215,4.909,64.608,7.358,49.882,11.448s-4.09,22.08-4.09,25.351S3632.27-126.1,3590.567-121.192s-315.666,15.538-338.555,15.538-125.121,1.635-149.655-5.724-79.322-9-85.047-31.075S3001.773-222.594,3001.773-222.594Z" transform="translate(-2546.28 227.502)"/>
      <path id="Path_45-2" data-name="Path 45" class="cls-9" d="M3004.635-114.47l-9-63.789s5.524-18.195,13.088-30.257a60.192,60.192,0,0,1,17.168-17.991l75.235,21.262s86.682,10.631,93.223,10.631S3288-190.291,3288-190.291l102.733,2.233h284.53l63.87-3.983,26.133-5.807L3788-207.525l27.581,15.485,8.7,22.259v32.42l-5.8,28.549-6.29,19.84-131.14,10.645s-148.472,32.056-156.975,32.056H3342.291c-28.708,0-149.9,1.063-157.339,0s-159.059-42.7-159.059-42.7Z" transform="translate(-2570.426 231.416)"/>
      <path id="Path_43-2" data-name="Path 43" class="cls-10" d="M3136.719,1439.866c26.207,69.686,23.461,70.872,51.938,127.821s27.3,53.554,64.956,96.742,85.686,76.011,85.686,76.011,40.405,42.082,105.034,58.045,373.142,31.787,456.062,15.2,145.117-48.371,145.117-48.371,52.517-25.568,92.591-58.045,67.729-71.865,67.729-71.865,36.623-38.757,66.334-88.449,52.514-110.323,52.514-110.323l67.718-190.958s93.982-243.236,93.982-247.382,16.88-50.509,31.737-122.719,37.018-239.026,40.127-309.854,3.451-227.343-8.29-292.989-38.7-109.18-38.7-109.18-18.659-41.115-55.282-87.067-91.213-96.742-91.213-96.742-42.5-38.006-81.532-67.719-39.278-30.35-72.1-53.153-59.208-38.06-59.208-38.06l-98.119,11.056-152.022,6.909H3720.734S3563.445-165.358,3469.58-176s-124.3-27.8-124.3-27.8L3185.906-84.577s-74.039,43.563-114.822,93.552-72.563,98.828-72.563,98.828S2958.6,181,2942.452,231.163s-21.525,53.647-28.7,138.163-3.986,97.578,0,199.9,26.575,215.809,26.575,215.809,30.029,151.491,65.916,277.468,77.6,226.439,77.6,226.439S3110.516,1370.18,3136.719,1439.866Z" transform="translate(-2909.48 316.42)"/>
      <path id="Path_49" data-name="Path 49" class="cls-11" d="M3429.673,1632.848s-157.5-380.615-147.234-616.66,5.129-477.221,97.5-543.928,164.385-184.509,153.942-364.33-261.7-364.329-415.647-236.045S2932.854,6.393,2916.175,292.469c-7.113,122.154,14.018,228.894,14.018,228.894S2951,706.077,3051.525,1016.188c49.3,152.079,84.438,293.856,133.391,381.842C3308.568,1620.316,3429.673,1632.848,3429.673,1632.848Z" transform="translate(-2901.219 473.074)"/>
    </g>
  </g>
</svg>
